<svg xmlns="http://www.w3.org/2000/svg" width="677" height="92" viewBox="0 0 677 92" fill="none"><path d="M162.67 50.4202V49.0702H167.41V21.8402H166.56C165.43 21.8402 164.46 22.0602 163.67 22.4902C162.51 23.1602 161.56 24.5502 160.83 26.6802L159.28 31.1702H157.78L157.98 20.4902H183.82L184.02 31.1702H182.52L180.97 26.6802C180.74 26.0502 180.52 25.5002 180.32 25.0302C179.32 22.9002 177.63 21.8402 175.23 21.8402H174.38V49.0802H177.77C178.47 49.1502 178.92 49.6002 179.12 50.4302H162.67V50.4202Z" fill="black"></path><path d="M189.86 50.4202V49.0702H193.85V21.8402H189.86V20.4902H204.83V21.8402H200.84V34.2602H213.51V21.8402H209.52V20.4902H224.49V21.8402H220.5V49.0802H223.14C223.84 49.1502 224.29 49.6002 224.49 50.4302H209.52V49.0802H213.51V35.7602H200.84V49.0802H203.48C204.18 49.1502 204.63 49.6002 204.83 50.4302H189.86V50.4202Z" fill="black"></path><path d="M254.26 30.0702L253.16 26.6302C253.06 26.3302 252.94 26.0302 252.81 25.7302C251.78 23.1402 249.9 21.8402 247.17 21.8402H241.53V34.2602H251.11V35.7602H241.53V49.0802H247.17C247.8 49.0802 248.4 49.0102 248.97 48.8802C250.87 48.3802 252.25 46.8502 253.11 44.2902L254.26 40.8502H255.71L255.51 50.4302H230.57V49.0802H234.56V21.8402H230.57V20.4902H255.51L255.71 30.0702H254.26Z" fill="black"></path><path d="M303.39 23.0401C307.28 25.9001 309.23 30.0701 309.23 35.5601C309.23 40.0801 307.68 43.8101 304.59 46.7401C301.56 49.5301 297.84 50.9301 293.41 50.9301C289.52 50.9301 286.13 49.8201 283.23 47.5901C279.47 44.6601 277.59 40.5901 277.59 35.3701C277.59 30.8101 279.17 27.0901 282.33 24.1901C285.39 21.4001 289.13 20.0001 293.56 20.0001C297.32 19.9901 300.6 21.0101 303.39 23.0401ZM297.41 48.4801C300.07 46.7801 301.4 42.3901 301.4 35.3101C301.4 32.3201 301.15 29.8101 300.65 27.7801C299.58 23.5601 297.17 21.4401 293.42 21.4401C292.29 21.4401 291.28 21.6401 290.38 22.0401C287.09 23.4401 285.44 27.9401 285.44 35.5601C285.44 39.5501 285.86 42.6401 286.69 44.8401C287.89 47.9301 290.18 49.4801 293.57 49.4801C295.09 49.4801 296.37 49.1401 297.41 48.4801Z" fill="black"></path><path d="M316.06 50.4202V49.0702H320.05V21.8402H316.06V20.4902H332.72C335.38 20.4902 337.64 21.1202 339.5 22.3902C341.7 23.8902 342.79 25.8702 342.79 28.3302C342.79 29.0602 342.69 29.7802 342.49 30.4802C341.69 33.3102 339.55 35.2002 336.05 36.1702L343.73 49.1402H344.38C344.55 49.1402 344.71 49.1602 344.88 49.1902C345.41 49.2902 345.68 49.7102 345.68 50.4402L336.9 50.4902L329.47 36.7702H327.03V49.0902H331.02V50.4402H316.06V50.4202ZM327.04 21.8402V35.2602H330.13C331.13 35.2602 332.01 35.0102 332.77 34.5102C334.5 33.4102 335.36 31.4302 335.36 28.5702C335.36 27.6402 335.24 26.7402 335.01 25.8802C334.21 23.1902 332.45 21.8402 329.72 21.8402H327.04Z" fill="black"></path><path d="M383.46 36.6602V38.0002H380.22V50.4202L374.18 49.3702C371.98 50.3702 369.56 50.8702 366.9 50.8702C363.54 50.8702 360.56 50.0602 357.97 48.4302C353.68 45.6702 351.53 41.3102 351.53 35.3602C351.53 30.7402 352.89 27.0302 355.62 24.2302C358.48 21.4002 362.19 19.9902 366.74 19.9902C369.27 19.9902 371.68 20.4702 373.97 21.4402L378.66 20.4902L378.86 31.0702H377.31C377.31 31.0402 377.31 31.0002 377.31 30.9702C376.05 24.6802 373.04 21.5402 368.28 21.5402C367.88 21.5402 367.48 21.5602 367.08 21.5902C361.86 22.1602 359.25 26.8102 359.25 35.5602C359.25 38.4902 359.52 40.9502 360.05 42.9402C361.21 47.2002 363.82 49.3302 367.88 49.3302C369.98 49.3302 371.79 48.7302 373.32 47.5302V38.0002H369.08V36.6502H383.46V36.6602Z" fill="black"></path><path d="M407.45 50.4205V49.0705H410.99L407.25 39.4905H397.32L393.73 49.0705H396.52C396.72 49.0705 396.9 49.0905 397.07 49.1205C397.5 49.1905 397.72 49.6205 397.72 50.4205H388.54V49.0705H391.73L402.66 20.4805H406.35L418.12 49.0705H419.62C419.82 49.0705 420 49.0905 420.17 49.1205C420.6 49.1905 420.82 49.6205 420.82 50.4205H407.45ZM402.21 26.5305L397.92 38.0005H406.65L402.21 26.5305Z" fill="black"></path><path d="M447.71 20.4902H457.79V21.8402H453.8V50.1802L450.96 50.6802L431.75 28.2802V49.0802H434.64C435.34 49.1502 435.79 49.6002 435.99 50.4302H425.66V49.0802H429.65V21.8402H425.66V20.4902H434.09L451.7 41.1402V21.8402H447.71V20.4902Z" fill="black"></path><path d="M463.12 50.4202V49.0702H467.11V21.8402H463.12V20.4902H478.09V21.8402H474.1V49.0802H476.74C477.44 49.1502 477.89 49.6002 478.09 50.4302H463.12V50.4202Z" fill="black"></path><path d="M484.17 50.4205V49.3205L502.03 21.7805L493.85 21.8305C492.19 21.8605 490.84 22.9305 489.81 25.0205L487.71 29.5105H486.21L486.56 20.4805H509.16V21.5805L491.7 49.0805H501.58C503.87 48.9805 505.5 47.5805 506.47 44.8905L507.92 40.1005H509.47L509.37 50.4305H484.17V50.4205Z" fill="black"></path><path d="M533.7 50.4205V49.0705H537.24L533.5 39.4905H523.57L519.98 49.0705H522.77C522.97 49.0705 523.15 49.0905 523.32 49.1205C523.75 49.1905 523.97 49.6205 523.97 50.4205H514.79V49.0705H517.98L528.91 20.4805H532.6L544.37 49.0705H545.87C546.07 49.0705 546.25 49.0905 546.42 49.1205C546.85 49.1905 547.07 49.6205 547.07 50.4205H533.7ZM528.46 26.5305L524.17 38.0005H532.9L528.46 26.5305Z" fill="black"></path><path d="M556.8 50.4202V49.0702H561.54V21.8402H560.69C559.56 21.8402 558.59 22.0602 557.8 22.4902C556.64 23.1602 555.69 24.5502 554.96 26.6802L553.41 31.1702H551.91L552.11 20.4902H577.95L578.15 31.1702H576.65L575.1 26.6802C574.87 26.0502 574.65 25.5002 574.45 25.0302C573.45 22.9002 571.76 21.8402 569.36 21.8402H568.51V49.0802H571.9C572.6 49.1502 573.05 49.6002 573.25 50.4302H556.8V50.4202Z" fill="black"></path><path d="M583.98 50.4202V49.0702H587.97V21.8402H583.98V20.4902H598.95V21.8402H594.96V49.0802H597.6C598.3 49.1502 598.75 49.6002 598.95 50.4302H583.98V50.4202Z" fill="black"></path><path d="M631.57 23.0401C635.46 25.9001 637.41 30.0701 637.41 35.5601C637.41 40.0801 635.86 43.8101 632.77 46.7401C629.74 49.5301 626.02 50.9301 621.59 50.9301C617.7 50.9301 614.31 49.8201 611.41 47.5901C607.65 44.6601 605.77 40.5901 605.77 35.3701C605.77 30.8101 607.35 27.0901 610.51 24.1901C613.57 21.4001 617.31 20.0001 621.74 20.0001C625.5 19.9901 628.78 21.0101 631.57 23.0401ZM625.59 48.4801C628.25 46.7801 629.58 42.3901 629.58 35.3101C629.58 32.3201 629.33 29.8101 628.83 27.7801C627.76 23.5601 625.35 21.4401 621.6 21.4401C620.47 21.4401 619.46 21.6401 618.56 22.0401C615.27 23.4401 613.62 27.9401 613.62 35.5601C613.62 39.5501 614.04 42.6401 614.87 44.8401C616.07 47.9301 618.36 49.4801 621.75 49.4801C623.28 49.4801 624.56 49.1401 625.59 48.4801Z" fill="black"></path><path d="M666.04 20.4902H676.12V21.8402H672.13V50.1802L669.29 50.6802L650.08 28.2802V49.0802H652.97C653.67 49.1502 654.12 49.6002 654.32 50.4302H643.99V49.0802H647.98V21.8402H643.99V20.4902H652.42L670.03 41.1402V21.8402H666.04V20.4902Z" fill="black"></path><path d="M301.27 61.6406H299.86V71.2706H300.79C301.04 71.2906 301.2 71.4506 301.27 71.7506H296.07V71.2706H297.48V62.8906L293.69 71.9206H293.37L289.61 64.6206V71.2706H290.54C290.79 71.2906 290.95 71.4506 291.02 71.7506H287.46V71.2706H288.87V61.6406H287.46V61.1606H290.62L294.32 68.7406L297.48 61.1606H301.27V61.6406Z" fill="black"></path><path d="M311.74 71.7404V71.2604H312.99L311.67 67.8704H308.16L306.89 71.2604H307.88C307.95 71.2604 308.01 71.2704 308.07 71.2804C308.22 71.3004 308.3 71.4604 308.3 71.7404H305.05V71.2604H306.18L310.04 61.1504H311.35L315.51 71.2604H316.04C316.11 71.2604 316.18 71.2704 316.23 71.2804C316.38 71.3004 316.46 71.4604 316.46 71.7404H311.74ZM309.89 63.2904L308.37 67.3504H311.46L309.89 63.2904Z" fill="black"></path><path d="M320.43 71.7404V71.2604H321.84V61.6304H320.43V61.1504H325.72V61.6304H324.31V66.1804L329.35 61.6304H327.94V61.1504H331.2C331.2 61.2104 331.19 61.2704 331.18 61.3304C331.16 61.5304 331 61.6304 330.72 61.6304C330.65 61.6304 330.57 61.6404 330.49 61.6504C330.25 61.7104 329.87 61.9804 329.34 62.4604L326.66 64.8804L330.96 71.2704H331.12C331.37 71.2904 331.53 71.4504 331.6 71.7504L328.23 71.7704L324.86 66.5304L324.3 67.0404V71.2704H325.23C325.48 71.2904 325.64 71.4504 325.71 71.7504H320.43V71.7404Z" fill="black"></path><path d="M343.96 64.5504L343.57 63.3304C343.53 63.2204 343.49 63.1204 343.45 63.0104C343.09 62.0904 342.42 61.6304 341.46 61.6304H339.47V66.0204H342.86V66.5504H339.47V71.2604H341.46C341.68 71.2604 341.89 71.2404 342.09 71.1904C342.76 71.0104 343.25 70.4704 343.55 69.5704L343.96 68.3504H344.47L344.4 71.7404H335.58V71.2604H336.99V61.6304H335.58V61.1504H344.4L344.47 64.5404H343.96V64.5504Z" fill="black"></path><path d="M358.41 71.7404V71.2604H359.91V67.2604L356.72 61.6304H355.89V61.1504H360.83V61.6304H359.49L362.07 66.5204L364.45 61.6304H363.04V61.1504H366.14C366.12 61.4004 365.96 61.5604 365.66 61.6304C365.3 61.6404 365 61.8104 364.78 62.1204L362.38 67.1304V71.2604H363.4C363.65 71.2804 363.81 71.4404 363.88 71.7404H358.41Z" fill="black"></path><path d="M379.49 62.0604C380.87 63.0704 381.55 64.5504 381.55 66.4904C381.55 68.0904 381 69.4104 379.91 70.4404C378.84 71.4304 377.52 71.9204 375.96 71.9204C374.58 71.9204 373.38 71.5304 372.36 70.7404C371.03 69.7104 370.37 68.2704 370.37 66.4204C370.37 64.8104 370.93 63.4904 372.05 62.4704C373.13 61.4804 374.45 60.9904 376.02 60.9904C377.34 60.9804 378.5 61.3404 379.49 62.0604ZM377.37 71.0604C378.31 70.4604 378.78 68.9104 378.78 66.4004C378.78 65.3404 378.69 64.4504 378.52 63.7404C378.14 62.2504 377.29 61.5004 375.96 61.5004C375.56 61.5004 375.2 61.5704 374.88 61.7104C373.72 62.2004 373.13 63.8004 373.13 66.4904C373.13 67.9004 373.28 68.9904 373.57 69.7704C373.99 70.8604 374.8 71.4104 376 71.4104C376.55 71.4104 377 71.2904 377.37 71.0604Z" fill="black"></path><path d="M385.96 61.1606H391.25V61.6406H389.84V67.7206C389.84 68.3906 389.89 68.9706 390 69.4506C390.28 70.7406 391.02 71.3906 392.2 71.3906C394.08 71.3806 395.03 70.1606 395.04 67.7206V61.6406H393.63V61.1606H397.1V61.6406H395.69V67.6206C395.69 68.4506 395.6 69.1706 395.41 69.7506C394.92 71.2006 393.72 71.9206 391.83 71.9206C388.88 71.9106 387.39 70.5606 387.37 67.8606V61.6306H385.96V61.1606Z" fill="black"></path><path d="M401.16 71.7404V71.2604H402.57V61.6304H401.16V61.1504H407.05C407.99 61.1504 408.79 61.3704 409.45 61.8204C410.23 62.3504 410.61 63.0504 410.61 63.9204C410.61 64.1804 410.57 64.4304 410.5 64.6804C410.22 65.6804 409.46 66.3504 408.22 66.6904L410.94 71.2804H411.17C411.23 71.2804 411.29 71.2904 411.35 71.3004C411.54 71.3404 411.63 71.4804 411.63 71.7404L408.53 71.7604L405.9 66.9104H405.04V71.2704H406.45V71.7504H401.16V71.7404ZM405.04 61.6404V66.3804H406.13C406.48 66.3804 406.79 66.2904 407.06 66.1204C407.67 65.7304 407.98 65.0304 407.98 64.0204C407.98 63.6904 407.94 63.3704 407.86 63.0704C407.58 62.1204 406.95 61.6404 405.99 61.6404H405.04Z" fill="black"></path><path d="M427.85 61.1606C429.15 61.1606 430.3 61.4706 431.27 62.0906C432.75 63.0506 433.49 64.5206 433.49 66.4806C433.49 68.0206 432.97 69.2806 431.94 70.2506C430.88 71.2406 429.54 71.7306 427.9 71.7306H422.64V71.2506H424.05V61.6206H422.64V61.1406H427.85V61.1606ZM426.53 61.6406V71.2706H427.87C428.42 71.2706 428.89 71.1606 429.26 70.9306C430.24 70.3506 430.72 68.8406 430.72 66.4006C430.72 65.1806 430.6 64.1906 430.37 63.4506C429.96 62.2406 429.14 61.6306 427.9 61.6306H426.53V61.6406Z" fill="black"></path><path d="M438.08 71.7404V71.2604H439.49V61.6304H438.08V61.1504H443.97C444.91 61.1504 445.71 61.3704 446.37 61.8204C447.15 62.3504 447.53 63.0504 447.53 63.9204C447.53 64.1804 447.49 64.4304 447.42 64.6804C447.14 65.6804 446.38 66.3504 445.14 66.6904L447.86 71.2804H448.09C448.15 71.2804 448.21 71.2904 448.27 71.3004C448.46 71.3404 448.55 71.4804 448.55 71.7404L445.45 71.7604L442.82 66.9104H441.96V71.2704H443.37V71.7504H438.08V71.7404ZM441.96 61.6404V66.3804H443.05C443.4 66.3804 443.71 66.2904 443.98 66.1204C444.59 65.7304 444.9 65.0304 444.9 64.0204C444.9 63.6904 444.86 63.3704 444.78 63.0704C444.5 62.1204 443.87 61.6404 442.91 61.6404H441.96Z" fill="black"></path><path d="M460.9 64.5504L460.51 63.3304C460.47 63.2204 460.43 63.1204 460.39 63.0104C460.03 62.0904 459.36 61.6304 458.4 61.6304H456.41V66.0204H459.8V66.5504H456.41V71.2604H458.4C458.62 71.2604 458.83 71.2404 459.03 71.1904C459.7 71.0104 460.19 70.4704 460.49 69.5704L460.9 68.3504H461.41L461.34 71.7404H452.52V71.2604H453.93V61.6304H452.52V61.1504H461.34L461.41 64.5404H460.9V64.5504Z" fill="black"></path><path d="M472.5 71.7404V71.2604H473.75L472.43 67.8704H468.92L467.65 71.2604H468.64C468.71 71.2604 468.77 71.2704 468.83 71.2804C468.98 71.3004 469.06 71.4604 469.06 71.7404H465.81V71.2604H466.94L470.8 61.1504H472.11L476.27 71.2604H476.8C476.87 71.2604 476.94 71.2704 476.99 71.2804C477.14 71.3004 477.22 71.4604 477.22 71.7404H472.5ZM470.65 63.2904L469.13 67.3504H472.22L470.65 63.2904Z" fill="black"></path><path d="M494.83 61.6406H493.42V71.2706H494.36C494.61 71.2906 494.77 71.4506 494.84 71.7506H489.64V71.2706H491.05V62.8906L487.26 71.9206H486.94L483.18 64.6206V71.2706H484.11C484.36 71.2906 484.52 71.4506 484.59 71.7506H481.03V71.2706H482.44V61.6406H481.03V61.1606H484.19L487.89 68.7406L491.05 61.1606H494.84V61.6406H494.83Z" fill="black"></path><path d="M506.9 70.7705C506.1 71.5305 504.95 71.9205 503.46 71.9205C502.18 71.9205 501.08 71.6205 500.18 71.0205C500.18 71.2205 500.17 71.3805 500.14 71.5005C500.08 71.6905 499.89 71.7805 499.58 71.7805V68.0405H500.27C500.32 68.6605 500.45 69.2205 500.66 69.7005C501.17 70.8405 502.04 71.4105 503.29 71.4105C503.62 71.4105 503.92 71.3605 504.19 71.2705C504.94 70.9905 505.32 70.4205 505.32 69.5805C505.32 69.3305 505.27 69.0905 505.16 68.8605C504.91 68.3705 504.28 67.8505 503.27 67.3305C502.14 66.7505 501.51 66.4205 501.37 66.3205C500.25 65.6305 499.69 64.7905 499.69 63.8205C499.69 63.1605 499.92 62.5905 500.38 62.1105C501.1 61.3705 502.17 61.0005 503.59 61.0005C504.67 61.0005 505.7 61.2305 506.68 61.6905C506.68 61.5805 506.69 61.4905 506.7 61.4105C506.76 61.1905 506.95 61.0805 507.28 61.0805V64.2705H506.59C506.58 63.6305 506.43 63.0905 506.13 62.6305C505.65 61.9005 504.92 61.5405 503.96 61.5405C503.71 61.5405 503.48 61.5805 503.25 61.6505C502.58 61.8705 502.24 62.3305 502.24 63.0305C502.24 63.3005 502.3 63.5605 502.42 63.8105C502.67 64.3205 503.28 64.8305 504.27 65.3405C505.35 65.9205 505.97 66.2505 506.12 66.3305C507.19 67.0205 507.72 67.8605 507.72 68.8305C507.73 69.5705 507.46 70.2305 506.9 70.7705Z" fill="black"></path><path d="M519.47 71.7404V71.2604H520.88V61.6304H519.47V61.1504H524.76V61.6304H523.35V71.2604H524.28C524.53 71.2804 524.69 71.4404 524.76 71.7404H519.47Z" fill="black"></path><path d="M536.79 61.1606H540.35V61.6406H538.94V71.6606L537.93 71.8406L531.14 63.9206V71.2706H532.16C532.41 71.2906 532.57 71.4506 532.64 71.7506H528.99V71.2706H530.4V61.6406H528.99V61.1606H531.97L538.2 68.4606V61.6306H536.79V61.1606Z" fill="black"></path><path d="M546.04 71.7406V71.2606H547.72V61.6306H547.42C547.02 61.6306 546.68 61.7106 546.4 61.8606C545.99 62.1006 545.65 62.5906 545.39 63.3406L544.84 64.9306H544.31L544.38 61.1606H553.52L553.59 64.9306H553.06L552.51 63.3406C552.43 63.1206 552.35 62.9206 552.28 62.7606C551.93 62.0106 551.33 61.6306 550.48 61.6306H550.18V71.2606H551.38C551.63 71.2806 551.79 71.4406 551.86 71.7406H546.04Z" fill="black"></path><path d="M567.21 62.0604C568.59 63.0704 569.27 64.5504 569.27 66.4904C569.27 68.0904 568.72 69.4104 567.63 70.4404C566.56 71.4304 565.24 71.9204 563.68 71.9204C562.3 71.9204 561.11 71.5304 560.08 70.7404C558.75 69.7104 558.09 68.2704 558.09 66.4204C558.09 64.8104 558.65 63.4904 559.77 62.4704C560.85 61.4804 562.17 60.9904 563.74 60.9904C565.06 60.9804 566.22 61.3404 567.21 62.0604ZM565.09 71.0604C566.03 70.4604 566.5 68.9104 566.5 66.4004C566.5 65.3404 566.41 64.4504 566.23 63.7404C565.85 62.2504 565 61.5004 563.67 61.5004C563.27 61.5004 562.91 61.5704 562.59 61.7104C561.43 62.2004 560.84 63.8004 560.84 66.4904C560.84 67.9004 560.99 68.9904 561.28 69.7704C561.7 70.8604 562.52 71.4104 563.71 71.4104C564.27 71.4104 564.72 71.2904 565.09 71.0604Z" fill="black"></path><path d="M580.9 71.7404V71.2604H582.31V61.6304H580.9V61.1504H586.79C587.73 61.1504 588.53 61.3704 589.19 61.8204C589.97 62.3504 590.35 63.0504 590.35 63.9204C590.35 64.1804 590.31 64.4304 590.24 64.6804C589.96 65.6804 589.2 66.3504 587.96 66.6904L590.68 71.2804H590.91C590.97 71.2804 591.03 71.2904 591.09 71.3004C591.28 71.3404 591.37 71.4804 591.37 71.7404L588.27 71.7604L585.64 66.9104H584.78V71.2704H586.19V71.7504H580.9V71.7404ZM584.78 61.6404V66.3804H585.87C586.22 66.3804 586.53 66.2904 586.8 66.1204C587.41 65.7304 587.72 65.0304 587.72 64.0204C587.72 63.6904 587.68 63.3704 587.6 63.0704C587.32 62.1204 586.69 61.6404 585.73 61.6404H584.78Z" fill="black"></path><path d="M603.72 64.5504L603.33 63.3304C603.29 63.2204 603.25 63.1204 603.21 63.0104C602.85 62.0904 602.18 61.6304 601.22 61.6304H599.23V66.0204H602.62V66.5504H599.23V71.2604H601.22C601.44 71.2604 601.65 71.2404 601.86 71.1904C602.53 71.0104 603.02 70.4704 603.32 69.5704L603.73 68.3504H604.24L604.17 71.7404H595.35V71.2604H596.76V61.6304H595.35V61.1504H604.17L604.24 64.5404H603.72V64.5504Z" fill="black"></path><path d="M615.32 71.7404V71.2604H616.57L615.25 67.8704H611.74L610.47 71.2604H611.46C611.53 71.2604 611.6 71.2704 611.65 71.2804C611.8 71.3004 611.88 71.4604 611.88 71.7404H608.63V71.2604H609.76L613.62 61.1504H614.92L619.08 71.2604H619.61C619.68 71.2604 619.75 71.2704 619.8 71.2804C619.95 71.3004 620.03 71.4604 620.03 71.7404H615.32ZM613.47 63.2904L611.95 67.3504H615.04L613.47 63.2904Z" fill="black"></path><path d="M624.02 71.7404V71.2604H625.43V61.6304H624.02V61.1504H629.4V61.6304H627.9V71.2604H629.72C630.07 71.2604 630.38 71.2004 630.65 71.0804C631.11 70.8604 631.46 70.3504 631.71 69.5604L632.22 67.9004H632.73L632.66 71.7304H624.02V71.7404Z" fill="black"></path><path d="M636.69 71.7404V71.2604H638.1V61.6304H636.69V61.1504H641.98V61.6304H640.57V71.2604H641.5C641.75 71.2804 641.91 71.4404 641.98 71.7404H636.69Z" fill="black"></path><path d="M647.94 71.7406V71.2606H649.62V61.6306H649.32C648.92 61.6306 648.58 61.7106 648.3 61.8606C647.89 62.1006 647.55 62.5906 647.29 63.3406L646.74 64.9306H646.21L646.28 61.1606H655.42L655.49 64.9306H654.96L654.41 63.3406C654.33 63.1206 654.25 62.9206 654.18 62.7606C653.83 62.0106 653.23 61.6306 652.38 61.6306H652.08V71.2606H653.28C653.53 71.2806 653.69 71.4406 653.76 71.7406H647.94Z" fill="black"></path><path d="M661.86 71.7404V71.2604H663.36V67.2604L660.17 61.6304H659.34V61.1504H664.28V61.6304H662.94L665.51 66.5204L667.89 61.6304H666.48V61.1504H669.58C669.56 61.4004 669.4 61.5604 669.1 61.6304C668.74 61.6404 668.44 61.8104 668.22 62.1204L665.82 67.1304V71.2604H666.84C667.09 71.2804 667.25 71.4404 667.32 71.7404H661.86Z" fill="black"></path><path d="M675.98 71.2006C675.75 71.6206 675.37 71.8306 674.87 71.8306C674.67 71.8306 674.48 71.7806 674.31 71.6906C673.86 71.4706 673.64 71.1006 673.64 70.6006C673.64 70.4006 673.69 70.2106 673.78 70.0206C674.02 69.5706 674.38 69.3506 674.87 69.3506C675.07 69.3506 675.26 69.4006 675.45 69.4906C675.9 69.7406 676.12 70.1106 676.12 70.6006C676.12 70.8106 676.07 71.0106 675.98 71.2006Z" fill="black"></path><path d="M92.52 27.3203C86.22 27.3203 80.79 29.4803 76.22 34.0503C71.74 38.5403 69.58 43.9703 69.58 50.2603C69.58 56.5503 71.74 62.0803 76.22 66.5603C80.71 71.0403 86.23 73.2003 92.52 73.2003C98.82 73.2003 104.25 71.0403 108.73 66.5603C113.3 61.9903 115.46 56.5503 115.46 50.2603C115.46 43.9703 113.22 38.5303 108.73 34.0503C104.25 29.5703 98.82 27.3203 92.52 27.3203Z" fill="#3935EA"></path><path d="M79.77 0.890137V10.3701H46.77V91.0101H136.55V0.890137H79.77ZM116.85 74.5901C110.12 81.3201 102.1 84.7701 92.52 84.7701C82.94 84.7701 74.92 81.3201 68.19 74.5901C61.47 67.8701 58.01 59.8401 58.01 50.2701C58.01 40.7801 61.47 32.6701 68.19 25.9401C74.83 19.2101 82.94 15.7601 92.52 15.7601C102.1 15.7601 110.12 19.2101 116.85 25.9401C123.66 32.6701 127.11 40.7801 127.11 50.2701C127.11 59.8401 123.66 67.9501 116.85 74.5901ZM0.32 10.3701H22.53V91.0101H34.69V0.890137H0.32V10.3701Z" fill="black"></path><path d="M2.7 13.2402H0.540001V91.0202H2.7V13.2402Z" fill="black"></path><path d="M8.12 13.2402H5.96V91.0202H8.12V13.2402Z" fill="black"></path><path d="M13.53 13.2402H11.37V91.0202H13.53V13.2402Z" fill="black"></path><path d="M18.94 13.2402H16.78V91.0202H18.94V13.2402Z" fill="black"></path></svg>